HIERARCHY
ROOT Hips
{
	OFFSET 0.000000 0.000000 0.000000 
	CHANNELS 6 Xposition Yposition Zposition Yrotation Zrotation Xrotation 
	JOINT Lumbar
	{
		OFFSET 0.000000 0.000000 0.000000 
		CHANNELS 3 Zrotation Xrotation Yrotation
		JOINT Neck
		{
			OFFSET 0.000000 0.445665 0.000000 
			CHANNELS 3 Zrotation Xrotation Yrotation
			End Site
			{
				OFFSET 0.000000 0.227535 0.000000 
			}
		}
		JOINT RightShoulder
		{
			OFFSET 0.019635 0.377685 0.194865 
			CHANNELS 3 Zrotation Xrotation Yrotation
			JOINT RightElbow
			{
				OFFSET 0.000000 -0.243375 0.000000 
				CHANNELS 2 Zrotation Yrotation
				JOINT RightWrist
				{
					OFFSET 0.000000 -0.264825 0.000000 
					CHANNELS 2 Zrotation Xrotation
					End Site
					{
						OFFSET 0.006600 -0.176220 0.000990 
					}
				}
			}
		}
		JOINT LeftShoulder
		{
			OFFSET 0.019635 0.377685 -0.194865 
			CHANNELS 3 Zrotation Xrotation Yrotation
			JOINT LeftElbow
			{
				OFFSET 0.000000 -0.243375 0.000000 
				CHANNELS 2 Zrotation Yrotation
				JOINT LeftWrist
				{
					OFFSET 0.000000 -0.264825 0.000000 
					CHANNELS 2 Zrotation Xrotation
					End Site
					{
						OFFSET 0.006600 -0.176220 -0.000990 
					}
				}
			}
		}
	}
	JOINT RightHip
	{
		OFFSET 0.052140 -0.069960 0.075570 
		CHANNELS 3 Zrotation Xrotation Yrotation
		JOINT RightKnee
		{
			OFFSET 0.000000 -0.402270 0.000000 
			CHANNELS 1 Zrotation
			JOINT RightAnkle
			{
				OFFSET 0.000000 -0.404085 0.000000 
				CHANNELS 3 Zrotation Xrotation Yrotation
				End Site
				{
					OFFSET 0.204105 -0.089430 0.008415 
				}
			}
		}
	}
	JOINT LeftHip
	{
		OFFSET 0.052140 -0.069960 -0.075570 
		CHANNELS 3 Zrotation Xrotation Yrotation
		JOINT LeftKnee
		{
			OFFSET 0.000000 -0.402270 0.000000 
			CHANNELS 1 Zrotation
			JOINT LeftAnkle
			{
				OFFSET 0.000000 -0.404085 0.000000 
				CHANNELS 3 Zrotation Xrotation Yrotation
				End Site
				{
					OFFSET 0.204105 -0.089430 -0.008415 
				}
			}
		}
	}
}
MOTION
Frames: 31
Frame Time: 0.02
-0.00033 5e-05 4e-05 20.33577 -36.17926 -2.50483 58.13426 -0.44627 0.47681 -12.69584 0.18416 0.25314 173.8144 -76.92785 -60.44757 13.53302 87.48293 5.51743 -3.3886 154.73126 82.49995 244.25861 5.32875 -85.57952 -11.88006 15.10479 50.62483 -0.67797 1.60013 -19.04465 -9.20431 -5.84774 -3.9261 54.69147 2.5341 6.62472 -24.37044 -8.57043 5.06327 3.48222
-0.00128 -0.00024 0.00056 20.3667 -36.10313 -2.53074 57.93642 -0.40285 0.59322 -12.34248 0.04828 0.25168 168.30458 -76.92272 -63.42531 12.81451 86.32878 4.87806 -3.30627 149.22927 82.22927 213.34202 5.32832 -84.87918 -10.62981 12.87204 50.61844 -0.75014 1.03988 -19.06247 -9.145 -5.81237 -3.90178 54.68913 2.57145 6.65391 -24.37383 -8.57456 5.05889 3.47569
-0.00223 -0.00052 0.00109 20.39768 -36.02705 -2.5566 57.73888 -0.35957 0.70933 -11.98979 -0.08718 0.25012 162.80407 -76.91725 -66.35508 12.09805 85.17896 4.23941 -3.22247 143.74183 81.95753 182.52067 5.329 -84.18171 -9.38335 10.64799 50.61196 -0.82215 0.48087 -19.08025 -9.08584 -5.77709 -3.87751 54.68673 2.60868 6.68283 -24.37723 -8.57871 5.05452 3.46918
-0.00317 -0.00081 0.00161 20.42853 -35.95113 -2.58243 57.5416 -0.31629 0.82539 -11.63744 -0.22265 0.24865 157.31001 -76.91213 -69.316 11.38162 84.0285 3.60184 -3.13998 138.2565 81.68739 151.6993 5.32865 -83.48365 -8.13686 8.42244 50.60558 -0.8941 -0.07775 -19.09802 -9.02671 -5.74182 -3.85326 54.68439 2.64592 6.7119 -24.38062 -8.58283 5.05016 3.46267
-0.00412 -0.0011 0.00213 20.45928 -35.87521 -2.60828 57.34411 -0.27285 0.9417 -11.28459 -0.35854 0.24733 151.80944 -76.90734 -72.34316 10.6635 82.87337 2.96394 -3.05998 132.75724 81.41899 120.78273 5.32707 -82.78241 -6.88683 6.18746 50.59932 -0.9662 -0.63741 -19.11582 -8.96744 -5.70649 -3.82896 54.68213 2.68328 6.74131 -24.384 -8.58694 5.04578 3.45614
-0.00507 -0.00139 0.00266 20.49072 -35.79879 -2.63418 57.14648 -0.22991 1.05741 -10.93228 -0.49307 0.24528 146.30937 -76.90034 -75.07052 9.95073 81.73478 2.32372 -2.9684 127.29481 81.14026 90.16333 5.33262 -82.0929 -5.64807 3.98645 50.59238 -1.038 -1.195 -19.13358 -8.90852 -5.67131 -3.80477 54.67942 2.72023 6.76919 -24.38745 -8.59116 5.04144 3.44968
-0.00602 -0.00167 0.00318 20.52072 -35.72349 -2.65995 56.94938 -0.18603 1.1742 -10.57924 -0.63019 0.24468 140.81475 -76.89821 -78.38732 9.22723 80.56433 1.68909 -2.89925 121.76532 80.88267 58.98141 5.32313 -81.38065 -4.38749 1.71983 50.58682 -1.11033 -1.75617 -19.15138 -8.84897 -5.63585 -3.78039 54.67763 2.75796 6.80012 -24.39074 -8.59514 5.03703 3.44309
-0.00697 -0.00196 0.0037 20.55211 -35.64713 -2.68584 56.75176 -0.14301 1.29 -10.22692 -0.76492 0.24277 135.31438 -76.8908 -81.18026 8.515 79.42292 1.04893 -2.81118 116.29582 80.60549 28.31514 5.32873 -80.6892 -3.14797 -0.48686 50.57998 -1.18216 -2.31398 -19.16916 -8.78999 -5.60065 -3.75618 54.67498 2.79498 6.82824 -24.39418 -8.59934 5.03267 3.43661
-0.00792 -0.00225 0.00423 20.585 -35.56952 -2.71187 56.55347 -0.10103 1.40462 -9.87506 -0.8968 0.23912 129.80616 -76.88002 -83.24889 7.81077 78.31803 0.403 -2.69263 110.90427 80.30428 -1.72148 5.34814 -80.02368 -1.92992 -2.61864 50.57158 -1.25345 -2.86825 -19.18688 -8.73171 -5.56576 -3.73218 54.67132 2.83113 6.85287 -24.3978 -8.60385 5.02841 3.4303
-0.00886 -0.00254 0.00475 20.60865 -35.4992 -2.73709 56.35891 -0.05302 1.52612 -9.51927 -1.0453 0.24507 124.34034 -76.89789 -89.23185 7.04312 77.00608 -0.20681 -2.7273 105.0779 80.14104 -35.38381 5.27419 -79.21049 -0.57544 -5.17646 50.5722 -1.32807 -3.44464 -19.20485 -8.66942 -5.52906 -3.70695 54.67358 2.87226 6.89743 -24.40039 -8.6067 5.02369 3.42312
-0.00982 -0.00282 0.00527 20.65215 -35.41348 -2.76403 56.15661 -0.01779 1.63305 -9.17266 -1.15859 0.23103 118.7881 -76.84943 -87.12208 6.42046 76.12902 -0.89453 -2.45305 100.16084 79.68713 -61.39236 5.40598 -78.70786 0.48282 -6.83864 50.55375 -1.3955 -3.97313 -19.22234 -8.61561 -5.49621 -3.68435 54.66331 2.90291 6.90006 -24.40515 -8.61296 5.01989 3.41772
-0.01084 -0.00309 0.00579 20.74787 -35.28532 -2.79576 55.93185 -0.0172 1.70021 -8.8437 -1.17549 0.15953 112.96422 -76.66316 -61.20854 6.10978 76.47464 -1.78466 -1.20228 97.82285 78.42146 -66.22166 6.0383 -79.07321 0.78958 -5.99389 50.48285 -1.44426 -4.37905 -19.23796 -8.5849 -5.47364 -3.66872 54.61874 2.90447 6.78552 -24.41585 -8.62935 5.01905 3.41758
-0.01188 -0.00335 0.00631 20.86384 -35.14187 -2.82929 55.69959 -0.02945 1.75271 -8.52514 -1.15702 0.06846 107.05807 -76.40057 -27.46296 5.96216 77.25243 -2.75507 0.33629 96.37914 76.86528 -63.39047 6.8904 -79.74684 0.78767 -4.26012 50.39293 -1.48556 -4.7351 -19.25318 -8.56271 -5.45493 -3.65575 54.5617 2.89571 6.62929 -24.42867 -8.64896 5.01897 3.41912
-0.01291 -0.00361 0.00682 20.97215 -35.00536 -2.86187 55.47151 -0.03616 1.81177 -8.20699 -1.15453 -0.01198 101.21424 -76.14596 1.65455 5.794 77.81214 -3.6963 1.65719 94.47546 75.45281 -64.19051 7.68215 -80.26996 0.88673 -2.96377 50.31162 -1.52962 -5.1084 -19.26895 -8.53677 -5.43469 -3.64178 54.5102 2.8917 6.49346 -24.44056 -8.66664 5.01834 3.4197
-0.01394 -0.00387 0.00734 21.07443 -34.86825 -2.89472 55.23996 -0.04188 1.8712 -7.86799 -1.15219 -0.09988 95.27219 -76.01015 35.29422 5.39361 78.46046 -4.60721 3.3394 92.81279 73.99547 -64.37515 8.3022 -80.84036 1.15046 -1.51963 50.22993 -1.57647 -5.50508 -19.2832 -8.51047 -5.41375 -3.62709 54.45877 2.88682 6.35128 -24.45249 -8.6865 5.0189 3.42126
-0.01498 -0.00413 0.00786 21.19352 -34.72952 -2.9278 55.01411 -0.05239 1.92646 -7.57384 -1.14137 -0.17677 89.50621 -75.60098 61.37832 5.52362 79.03141 -5.59988 4.34486 90.84368 72.55641 -63.9847 9.33855 -81.38197 0.99888 -0.17885 50.14512 -1.61554 -5.84046 -19.30048 -8.48676 -5.39489 -3.61435 54.4048 2.88205 6.21262 -24.46461 -8.70234 5.01678 3.42096
-0.01603 -0.0044 0.00838 21.35881 -34.58374 -2.95767 54.80365 -0.07584 1.9732 -7.41037 -1.11418 -0.2193 84.32774 -74.52088 64.59131 7.00815 79.23832 -6.79826 3.34468 87.94937 71.2917 -64.26591 11.41066 -81.79677 -0.22665 0.71105 50.05165 -1.6367 -6.0262 -19.32674 -8.46965 -5.38323 -3.60794 54.34226 2.87358 6.09273 -24.47869 -8.70835 5.01035 3.4171
-0.01709 -0.00466 0.00891 21.5395 -34.43814 -2.98825 54.59946 -0.10321 2.01633 -7.29009 -1.07996 -0.24993 79.31666 -73.1549 59.94837 9.03284 79.35906 -8.07351 1.66601 84.69141 70.04414 -64.16772 13.90304 -82.16691 -1.85615 1.45762 49.95673 -1.65004 -6.15106 -19.35601 -8.45458 -5.37309 -3.60312 54.2786 2.86664 5.97812 -24.49259 -8.70988 5.00065 3.41099
-0.01814 -0.00493 0.00943 21.70994 -34.29649 -3.02083 54.39399 -0.12677 2.06156 -7.14369 -1.05008 -0.2854 74.17262 -71.87862 58.95448 10.85757 79.55035 -9.31723 0.34124 81.50537 68.75613 -63.98758 16.24509 -82.53855 -3.30229 2.23356 49.86538 -1.66569 -6.29832 -19.38353 -8.43755 -5.36062 -3.5965 54.21828 2.86349 5.8618 -24.5052 -8.71205 4.99018 3.40455
-0.0192 -0.0052 0.00996 21.89452 -34.13688 -3.04404 54.18214 -0.15898 2.10447 -7.02444 -1.01429 -0.32382 69.25573 -70.77458 57.88568 12.50021 79.63064 -10.56044 -1.16656 78.73632 67.60205 -64.59587 18.43225 -82.99904 -4.76944 3.18581 49.76048 -1.68593 -6.46416 -19.41252 -8.4251 -5.35512 -3.59443 54.14496 2.84169 5.74085 -24.52338 -8.71997 4.98896 3.40366
-0.02024 -0.00545 0.01049 22.0534 -34.01544 -3.08645 53.98455 -0.17442 2.15136 -6.85953 -0.9894 -0.35317 63.91926 -69.23849 55.02472 14.64276 79.90798 -11.80807 -2.45704 75.01116 66.16909 -63.59415 21.02754 -83.26144 -6.27071 3.73245 49.68448 -1.69534 -6.57991 -19.43935 -8.40358 -5.33554 -3.58335 54.0994 2.85843 5.63166 -24.53025 -8.7151 4.96806 3.39089
-0.0212 -0.00562 0.01104 22.13411 -33.99515 -3.18575 53.82972 -0.13836 2.212 -6.55151 -0.99829 -0.35916 57.277 -66.63589 48.92822 18.07612 80.81806 -13.16887 -2.99143 68.64162 64.03163 -58.0848 24.74192 -82.97186 -7.88853 3.12609 49.68209 -1.67244 -6.55068 -19.45781 -8.35576 -5.27558 -3.54611 54.12399 2.98817 5.55178 -24.50277 -8.67353 4.89047 3.34379
-0.02212 -0.00576 0.01159 22.18883 -34.01414 -3.30358 53.68785 -0.08602 2.27661 -6.19732 -1.01822 -0.35655 50.22877 -63.59964 41.29947 21.98197 81.91504 -14.50994 -3.28345 61.33649 61.60291 -51.03724 28.83201 -82.48563 -9.50428 2.12394 49.71019 -1.63965 -6.47669 -19.47433 -8.2989 -5.20165 -3.49994 54.17785 3.1555 5.48459 -24.46449 -8.61965 4.79373 3.28516
-0.02307 -0.00592 0.01214 22.25779 -34.01801 -3.41033 53.53722 -0.04386 2.33809 -5.8683 -1.032 -0.35859 43.43413 -60.72334 34.46865 25.64689 82.87948 -15.77954 -3.68111 54.51476 59.26121 -44.83219 32.68889 -82.09862 -11.03776 1.34408 49.72865 -1.61441 -6.43853 -19.49279 -8.24653 -5.13477 -3.45838 54.22286 3.30093 5.41238 -24.43321 -8.57306 4.70788 3.2332
-0.02401 -0.00606 0.0127 22.3176 -34.01038 -3.52846 53.40011 0.00987 2.40453 -5.52261 -1.05025 -0.35713 36.34605 -57.98771 26.93689 29.45461 84.04051 -17.38637 -4.12059 47.43021 57.10487 -37.99716 36.83125 -81.66967 -12.92978 0.3838 49.72909 -1.57644 -6.33581 -19.50674 -8.19235 -5.06474 -3.41443 54.24918 3.46627 5.33515 -24.39308 -8.51928 4.61287 3.17525
-0.02494 -0.00624 0.01325 22.38938 -34.03599 -3.62711 53.23635 0.04346 2.46226 -5.20077 -1.06195 -0.36102 29.78003 -54.8674 20.60634 33.05349 84.83957 -18.2915 -4.40749 40.68168 54.50122 -32.12261 40.454 -81.28064 -14.07804 -0.29682 49.77453 -1.5622 -6.35397 -19.52976 -8.1401 -4.99823 -3.37347 54.32123 3.59964 5.27388 -24.36882 -8.47745 4.53224 3.12693
-0.02585 -0.00653 0.01374 22.50657 -34.1446 -3.66904 53.00821 0.01717 2.48949 -4.95065 -1.05265 -0.38222 24.67395 -50.72907 17.95892 36.10017 84.57566 -17.20873 -4.32147 35.03876 50.66459 -29.21996 42.62183 -81.06034 -13.09477 -0.07552 49.93576 -1.62087 -6.75115 -19.57713 -8.09257 -4.94231 -3.34153 54.51471 3.63035 5.231 -24.39109 -8.4731 4.49777 3.10924
-0.02676 -0.00686 0.01423 22.63545 -34.28541 -3.69054 52.75029 -0.02979 2.50883 -4.72734 -1.03645 -0.40907 20.12164 -46.23292 16.61176 38.8925 83.94486 -15.43097 -4.08878 29.77825 46.40107 -27.34718 44.23829 -80.885 -11.37589 0.43542 50.14191 -1.70304 -7.2665 -19.63403 -8.04776 -4.89079 -3.31311 54.75329 3.62848 5.20737 -24.42971 -8.48102 4.47818 3.10148
-0.02768 -0.00717 0.01472 22.75503 -34.41061 -3.72023 52.49809 -0.06719 2.53543 -4.49458 -1.02359 -0.43312 15.36795 -41.9409 14.71612 41.70535 83.49391 -14.00637 -3.92714 24.37711 42.37774 -25.04687 46.05783 -80.68283 -10.04266 0.79275 50.32754 -1.77108 -7.70421 -19.68716 -8.00363 -4.83909 -3.28411 54.96909 3.64502 5.19042 -24.46078 -8.48227 4.45059 3.08837
-0.02856 -0.00748 0.01518 22.89076 -34.54021 -3.75474 52.28007 -0.10505 2.54678 -4.24701 -1.01025 -0.45785 10.38758 -37.45274 12.59031 44.93216 82.99355 -12.42107 -3.73946 18.80035 38.1477 -22.53462 48.09093 -80.50188 -8.49163 1.22874 50.51269 -1.85276 -8.23697 -19.73736 -7.95133 -4.77966 -3.25075 55.19353 3.64796 5.1111 -24.49192 -8.48737 4.42739 3.07824
-0.02952 -0.0078 0.01572 22.99569 -34.66912 -3.77467 51.98268 -0.14668 2.58783 -4.03935 -0.99611 -0.48258 6.01652 -33.30077 11.26436 47.23548 82.50718 -11.00883 -3.57361 13.69589 34.25259 -20.71211 49.54376 -80.28857 -7.22102 1.57516 50.71161 -1.91246 -8.60593 -19.7966 -7.91651 -4.73701 -3.22711 55.41284 3.67062 5.16315 -24.52702 -8.48795 4.39907 3.06458
